<?xml version="1.0" standalone="no"?>
<!DOCTYPE svg PUBLIC "-//W3C//DTD SVG 20010904//EN"
 "http://www.w3.org/TR/2001/REC-SVG-20010904/DTD/svg10.dtd">
<svg version="1.0" xmlns="http://www.w3.org/2000/svg"
 width="200" height="200" viewBox="0 0 190.000000 250.000000"
 preserveAspectRatio="xMidYMid meet">
<g transform="translate(0.000000,176.000000) scale(0.100000,-0.100000)"
fill="#023E8A" stroke="#023E8A">
<circle cx="950" cy="1350" r="280" fill-opacity="0" stroke-width="60"/>
<line x1="950" y1="1250" x2="950" y2="1450" stroke-linecap="round" stroke-width="60"></line>
<path d="M1170 1010 c0 -6 20 -46 45 -89 25 -43 45 -81 45 -85 0 -3 -17 1 -37
9 -38 16 -63 14 -63 -5 0 -12 141 -80 165 -80 19 0 33 169 14 180 -20 13 -29
2 -29 -36 0 -19 -4 -34 -9 -34 -5 0 -29 34 -52 75 -29 50 -49 75 -61 75 -10 0
-18 -5 -18 -10z"/>
<path d="M663 975 c-40 -18 -73 -39 -73 -45 0 -19 28 -22 60 -5 18 9 34 14 37
11 3 -3 -16 -41 -41 -86 -26 -44 -44 -85 -41 -90 14 -23 33 -6 74 65 23 41 46
77 52 80 5 4 9 -11 9 -34 0 -34 3 -41 20 -41 22 0 25 29 14 128 -8 63 -13 64
-111 17z"/>
<circle cx="420" cy="360" r="280" fill-opacity="0" stroke-width="60" />
<line x1="330" y1="260" x2="330" y2="460" stroke-linecap="round" stroke-width="60"></line>
<line x1="420" y1="260" x2="420" y2="460" stroke-linecap="round" stroke-width="60"></line>
<line x1="510" y1="260" x2="510" y2="460" stroke-linecap="round" stroke-width="60"></line>
<circle cx="1480" cy="360" r="280" fill-opacity="0" stroke-width="60" />
<line x1="1420" y1="260" x2="1420" y2="460" stroke-linecap="round" stroke-width="60"></line>
<line x1="1540" y1="260" x2="1540" y2="460" stroke-linecap="round" stroke-width="60"></line>
<path d="M887 463 c-37 -27 -67 -54 -67 -60 0 -17 136 -107 149 -98 20 12 12
30 -21 50 l-33 20 100 5 c80 4 100 8 100 20 0 12 -20 16 -104 20 l-105 5 37
28 c37 28 49 57 24 57 -8 0 -44 -21 -80 -47z"/>
</g>
<g transform="translate(0.000000,230.000000) scale(0.080000,-0.0800000)"
fill="#023E8A">
<path d="M1335 561 c-69 -17 -117 -55 -151 -121 -29 -55 -27 -210 4 -273 27
-54 81 -91 149 -102 63 -10 83 0 83 41 l0 34 -50 0 c-29 0 -61 7 -75 16 -56
37 -77 182 -37 260 24 48 60 69 119 69 43 0 43 0 43 36 0 30 -4 38 -22 43 -13
3 -25 5 -28 5 -3 -1 -18 -4 -35 -8z"/>
<path d="M147 539 c-80 -42 -120 -158 -97 -286 22 -131 95 -202 196 -190 41 4
46 2 75 -30 27 -32 33 -34 55 -24 30 13 30 22 -2 60 l-26 31 28 56 c33 67 43
175 24 254 -29 123 -149 184 -253 129z m137 -67 c50 -46 69 -153 42 -245 -19
-65 -46 -89 -101 -89 -69 0 -105 59 -105 174 0 146 86 230 164 160z"/>
<path d="M540 365 c0 -213 7 -249 54 -280 62 -41 159 -27 198 28 22 30 23 43
26 240 l3 207 -40 0 -40 0 -3 -191 c-3 -187 -4 -191 -27 -210 -28 -23 -41 -24
-67 -5 -17 13 -19 30 -22 210 l-3 196 -40 0 -39 0 0 -195z"/>
<path d="M950 309 l0 -250 38 3 37 3 3 248 2 247 -40 0 -40 0 0 -251z"/>
<path d="M1550 310 l0 -250 40 0 40 0 0 116 c0 67 4 113 9 110 5 -4 37 -56 71
-116 l61 -110 44 0 c25 0 45 2 45 5 0 2 -31 61 -70 129 -38 69 -70 131 -70
139 0 7 27 59 60 115 33 55 60 104 60 107 0 3 -20 5 -44 5 l-45 0 -51 -95
c-28 -52 -55 -97 -61 -100 -5 -4 -9 34 -9 94 l0 101 -40 0 -40 0 0 -250z"/>
<path d="M1990 551 c0 -5 27 -69 60 -141 l60 -131 0 -109 0 -110 40 0 40 0 0
111 0 110 55 124 c30 69 55 132 55 140 0 11 -10 15 -36 15 -31 0 -37 -4 -50
-35 -42 -102 -65 -147 -70 -142 -4 3 -21 43 -40 89 l-33 83 -41 3 c-22 2 -40
-1 -40 -7z"/>
</g>
</svg>
